<svg width="166" height="49" viewBox="0 0 166 49" fill="none" xmlns="http://www.w3.org/2000/svg">
<path d="M159.852 0H6.14815C2.75262 0 0 2.74226 0 6.125V42.875C0 46.2577 2.75262 49 6.14815 49H159.852C163.247 49 166 46.2577 166 42.875V6.125C166 2.74226 163.247 0 159.852 0Z" fill="#131227"/>
<path d="M32.0202 26.4688H16.8536C15.7896 26.4688 14.9294 27.3257 14.9294 28.3856C14.9294 29.4456 15.7896 30.3025 16.8536 30.3025H34.3292C34.3292 30.3025 35.2346 29.4005 34.2613 27.9346C33.2652 26.4688 32.0202 26.4688 32.0202 26.4688Z" fill="white"/>
<path d="M31.2515 10.3447L21.8347 26.5818C21.314 27.5065 21.6083 28.6791 22.5364 29.1978C23.4645 29.7165 24.6416 29.4233 25.1623 28.4987L34.5791 12.2616C35.0998 11.337 34.8055 10.1643 33.8774 9.64564C32.9493 9.1044 31.7722 9.42012 31.2515 10.3447Z" fill="white"/>
<path d="M42.7742 33.5501L33.1082 16.8394C33.1082 16.8394 31.7048 17.9218 31.7048 20.0642C31.7048 22.2066 32.5876 23.6499 32.5876 23.6499L39.4465 35.4895C39.9672 36.4141 41.1443 36.7298 42.0724 36.1886C42.9779 35.6473 43.2948 34.4747 42.7742 33.5501Z" fill="white"/>
<path d="M43.7461 26.4688H38.3812C37.3173 26.4688 36.4571 27.3257 36.4571 28.3856C36.4571 29.4456 37.3173 30.3025 38.3812 30.3025H43.7461C44.81 30.3025 45.6702 29.4456 45.6702 28.3856C45.6702 27.3483 44.81 26.4688 43.7461 26.4688Z" fill="white"/>
<path d="M31.3638 13.8626L29.3265 10.322C28.8058 9.41992 27.6061 9.1042 26.7006 9.62288C25.7951 10.1416 25.4782 11.3368 25.9989 12.2389L28.0362 15.7795C28.5568 16.6815 29.7566 16.9972 30.662 16.4786C31.5675 15.9599 31.8844 14.7872 31.3638 13.8626Z" fill="white"/>
<path d="M17.8029 33.5274L19.0253 31.4301C19.0253 31.4301 19.3196 30.8438 20.4741 30.8438C21.6965 30.8438 22.8736 31.8586 22.9641 32.2419L21.1305 35.4443C20.6099 36.3689 19.4328 36.6846 18.5047 36.1434C17.5766 35.6247 17.2823 34.452 17.8029 33.5274Z" fill="white"/>
<path d="M67.0406 37.3376H64.3799L62.9225 32.7751H57.8565L56.4681 37.3376H53.8777L58.8969 21.8047H61.9969L67.0406 37.3376ZM62.4831 30.8609L61.1651 26.8049C61.0257 26.3906 60.7644 25.4148 60.3789 23.8788H60.3321C60.1786 24.5394 59.9314 25.5152 59.5916 26.8049L58.297 30.8609H62.4831Z" fill="white"/>
<path d="M79.9488 31.5996C79.9488 33.5044 79.4321 35.0101 78.3987 36.1154C77.4732 37.0994 76.3238 37.5908 74.9519 37.5908C73.471 37.5908 72.4072 37.0609 71.7593 36.0011H71.7124V41.9012H69.2146V29.8243C69.2146 28.6268 69.1829 27.3977 69.122 26.1372H71.3188L71.4582 27.9125H71.505C72.3381 26.5749 73.6022 25.9072 75.2987 25.9072C76.6249 25.9072 77.7321 26.429 78.6178 27.4736C79.5059 28.5194 79.9488 29.8943 79.9488 31.5996ZM77.404 31.6906C77.404 30.6005 77.158 29.7018 76.6636 28.9944C76.1235 28.2568 75.3983 27.8879 74.4891 27.8879C73.8728 27.8879 73.3128 28.0934 72.8125 28.4984C72.3111 28.9069 71.9831 29.4403 71.8296 30.1009C71.7522 30.4091 71.7136 30.6612 71.7136 30.8596V32.7271C71.7136 33.5418 71.9643 34.2293 72.4658 34.7907C72.9672 35.3521 73.6186 35.6322 74.42 35.6322C75.3608 35.6322 76.093 35.2704 76.6167 34.5491C77.1416 33.8266 77.404 32.8742 77.404 31.6906Z" fill="white"/>
<path d="M92.8803 31.5996C92.8803 33.5044 92.3636 35.0101 91.3291 36.1154C90.4047 37.0994 89.2554 37.5908 87.8834 37.5908C86.4025 37.5908 85.3387 37.0609 84.692 36.0011H84.6451V41.9012H82.1473V29.8243C82.1473 28.6268 82.1157 27.3977 82.0547 26.1372H84.2515L84.3909 27.9125H84.4378C85.2696 26.5749 86.5338 25.9072 88.2314 25.9072C89.5565 25.9072 90.6636 26.429 91.5517 27.4736C92.4363 28.5194 92.8803 29.8943 92.8803 31.5996ZM90.3356 31.6906C90.3356 30.6005 90.0884 29.7018 89.594 28.9944C89.0539 28.2568 88.331 27.8879 87.4207 27.8879C86.8032 27.8879 86.2444 28.0934 85.7429 28.4984C85.2415 28.9069 84.9146 29.4403 84.7611 30.1009C84.685 30.4091 84.6451 30.6612 84.6451 30.8596V32.7271C84.6451 33.5418 84.8959 34.2293 85.395 34.7907C85.8964 35.3509 86.5478 35.6322 87.3515 35.6322C88.2923 35.6322 89.0246 35.2704 89.5483 34.5491C90.0732 33.8266 90.3356 32.8742 90.3356 31.6906Z" fill="white"/>
<path d="M107.338 32.9817C107.338 34.303 106.878 35.378 105.953 36.2078C104.937 37.1147 103.523 37.5676 101.706 37.5676C100.028 37.5676 98.6834 37.2455 97.6653 36.6L98.244 34.5259C99.3407 35.1866 100.544 35.518 101.855 35.518C102.796 35.518 103.528 35.3056 104.054 34.8831C104.578 34.4606 104.839 33.8933 104.839 33.186C104.839 32.5557 104.623 32.0246 104.191 31.594C103.761 31.1633 103.043 30.7629 102.04 30.3929C99.3102 29.3786 97.9465 27.8928 97.9465 25.9389C97.9465 24.662 98.4245 23.6151 99.3817 22.8004C100.335 21.9845 101.608 21.5771 103.199 21.5771C104.618 21.5771 105.796 21.8234 106.737 22.3148L106.112 24.3434C105.234 23.8672 104.24 23.6291 103.128 23.6291C102.25 23.6291 101.563 23.845 101.071 24.2745C100.655 24.6585 100.447 25.1266 100.447 25.681C100.447 26.2949 100.684 26.8026 101.162 27.2018C101.578 27.5707 102.334 27.9698 103.431 28.4005C104.772 28.9386 105.758 29.5677 106.391 30.289C107.023 31.008 107.338 31.9079 107.338 32.9817Z" fill="white"/>
<path d="M115.595 28.0049H112.842V33.4429C112.842 34.826 113.327 35.5169 114.299 35.5169C114.746 35.5169 115.116 35.4784 115.409 35.4014L115.478 37.2911C114.986 37.4743 114.338 37.5665 113.535 37.5665C112.549 37.5665 111.778 37.2666 111.222 36.6678C110.667 36.0679 110.389 35.0617 110.389 33.6483V28.0026H108.748V26.1351H110.389V24.0843L112.842 23.3467V26.1351H115.595V28.0049Z" fill="white"/>
<path d="M128.016 31.6454C128.016 33.367 127.522 34.7805 126.535 35.8858C125.501 37.0238 124.128 37.5911 122.416 37.5911C120.766 37.5911 119.453 37.046 118.474 35.9558C117.494 34.8657 117.004 33.4896 117.004 31.831C117.004 30.0954 117.508 28.6738 118.519 27.5684C119.528 26.4619 120.889 25.9087 122.601 25.9087C124.251 25.9087 125.578 26.4538 126.58 27.5451C127.538 28.6037 128.016 29.9705 128.016 31.6454ZM125.425 31.726C125.425 30.693 125.203 29.8071 124.754 29.0683C124.231 28.1742 123.482 27.7283 122.512 27.7283C121.508 27.7283 120.745 28.1754 120.222 29.0683C119.773 29.8083 119.551 30.7082 119.551 31.7726C119.551 32.8056 119.773 33.6915 120.222 34.4292C120.762 35.3232 121.516 35.7691 122.49 35.7691C123.443 35.7691 124.192 35.3139 124.732 34.4058C125.193 33.653 125.425 32.7577 125.425 31.726Z" fill="white"/>
<path d="M136.135 28.3256C135.888 28.2801 135.624 28.2568 135.348 28.2568C134.469 28.2568 133.79 28.5871 133.312 29.2489C132.896 29.8325 132.687 30.5701 132.687 31.4607V37.3375H130.19L130.214 29.6644C130.214 28.3735 130.182 27.1981 130.12 26.1383H132.296L132.387 28.2813H132.456C132.72 27.5448 133.136 26.9519 133.705 26.5072C134.262 26.1068 134.863 25.9072 135.511 25.9072C135.741 25.9072 135.95 25.9236 136.135 25.9527V28.3256Z" fill="white"/>
<path d="M147.308 31.2074C147.308 31.6533 147.279 32.0291 147.216 32.3361H139.723C139.752 33.4426 140.114 34.2888 140.81 34.8724C141.442 35.3941 142.258 35.6556 143.261 35.6556C144.371 35.6556 145.383 35.4793 146.293 35.1257L146.685 36.8531C145.621 37.3153 144.365 37.5453 142.916 37.5453C141.172 37.5453 139.804 37.034 138.808 36.0128C137.814 34.9915 137.316 33.62 137.316 31.8996C137.316 30.2107 137.779 28.8042 138.706 27.6825C139.676 26.485 140.987 25.8862 142.637 25.8862C144.257 25.8862 145.484 26.485 146.317 27.6825C146.976 28.6338 147.308 29.8103 147.308 31.2074ZM144.926 30.562C144.942 29.8243 144.78 29.187 144.441 28.649C144.009 27.9568 143.344 27.6113 142.45 27.6113C141.634 27.6113 140.97 27.9487 140.462 28.6256C140.046 29.1637 139.799 29.8091 139.723 30.5608H144.926V30.562Z" fill="white"/>
<path d="M61.657 12.2489C61.657 13.6227 61.2434 14.6569 60.4174 15.3513C59.6524 15.9921 58.5651 16.3131 57.1569 16.3131C56.4586 16.3131 55.8611 16.2827 55.3608 16.222V8.71587C56.0134 8.61082 56.7163 8.55713 57.4755 8.55713C58.817 8.55713 59.8281 8.84776 60.51 9.42902C61.2739 10.0861 61.657 11.0257 61.657 12.2489ZM60.3624 12.2828C60.3624 11.3922 60.1257 10.7094 59.6524 10.2332C59.179 9.75816 58.4878 9.52006 57.5775 9.52006C57.1908 9.52006 56.8616 9.54574 56.5886 9.59943V15.3058C56.7398 15.3292 57.0163 15.3397 57.4181 15.3397C58.3577 15.3397 59.083 15.0794 59.5938 14.5588C60.1046 14.0382 60.3624 13.2796 60.3624 12.2828Z" fill="white"/>
<path d="M68.5214 13.4489C68.5214 14.2952 68.2789 14.9885 67.7938 15.5324C67.2854 16.0915 66.6117 16.3704 65.7705 16.3704C64.9598 16.3704 64.3142 16.1031 63.8327 15.5662C63.3523 15.0305 63.1121 14.3547 63.1121 13.54C63.1121 12.6879 63.3593 11.9888 63.8561 11.446C64.3529 10.9033 65.0207 10.6313 65.8619 10.6313C66.6726 10.6313 67.324 10.8986 67.8173 11.4344C68.2859 11.9549 68.5214 12.6272 68.5214 13.4489ZM67.2479 13.4886C67.2479 12.9809 67.1378 12.5455 66.9187 12.1825C66.6609 11.7437 66.2942 11.5242 65.8174 11.5242C65.3241 11.5242 64.9492 11.7437 64.6915 12.1825C64.4712 12.5455 64.3622 12.9879 64.3622 13.5108C64.3622 14.0185 64.4724 14.4539 64.6915 14.8169C64.9574 15.2557 65.3276 15.4752 65.8056 15.4752C66.2743 15.4752 66.6422 15.2522 66.9069 14.8052C67.1342 14.4352 67.2479 13.9964 67.2479 13.4886Z" fill="white"/>
<path d="M77.7244 10.7432L75.9963 16.2453H74.8716L74.1558 13.8561C73.9742 13.2596 73.8265 12.6667 73.7117 12.0784H73.6895C73.5828 12.683 73.4352 13.2748 73.2454 13.8561L72.4851 16.2453H71.3474L69.7224 10.7432H70.9842L71.6087 13.3588C71.7598 13.9774 71.884 14.5669 71.9836 15.1248H72.0059C72.0973 14.6649 72.2484 14.079 72.4616 13.3705L73.2454 10.7443H74.246L74.997 13.3145C75.1786 13.9413 75.3262 14.5447 75.4398 15.126H75.4738C75.557 14.5599 75.6823 13.9564 75.8487 13.3145L76.5189 10.7443H77.7244V10.7432Z" fill="white"/>
<path d="M84.0919 16.2456H82.8641V13.0942C82.8641 12.1231 82.4938 11.6375 81.751 11.6375C81.3867 11.6375 81.0926 11.7706 80.8641 12.0379C80.638 12.3052 80.5232 12.6203 80.5232 12.981V16.2444H79.2954V12.3157C79.2954 11.8325 79.2801 11.3084 79.2509 10.7411H80.3299L80.3873 11.6014H80.4213C80.5642 11.3341 80.7774 11.1135 81.0575 10.9372C81.3902 10.7318 81.7628 10.6279 82.1705 10.6279C82.686 10.6279 83.1148 10.7937 83.4557 11.1263C83.8798 11.5337 84.0919 12.1418 84.0919 12.9495V16.2456Z" fill="white"/>
<path d="M87.4752 16.2455H86.2486V8.21875H87.4752V16.2455Z" fill="white"/>
<path d="M94.7055 13.4489C94.7055 14.2952 94.463 14.9885 93.9779 15.5324C93.4695 16.0915 92.7946 16.3704 91.9546 16.3704C91.1427 16.3704 90.4971 16.1031 90.0168 15.5662C89.5364 15.0305 89.2962 14.3547 89.2962 13.54C89.2962 12.6879 89.5434 11.9888 90.0402 11.446C90.537 10.9033 91.2048 10.6313 92.0448 10.6313C92.8567 10.6313 93.507 10.8986 94.0014 11.4344C94.47 11.9549 94.7055 12.6272 94.7055 13.4489ZM93.4308 13.4886C93.4308 12.9809 93.3207 12.5455 93.1016 12.1825C92.845 11.7437 92.4771 11.5242 92.0015 11.5242C91.507 11.5242 91.1321 11.7437 90.8755 12.1825C90.6553 12.5455 90.5463 12.9879 90.5463 13.5108C90.5463 14.0185 90.6565 14.4539 90.8755 14.8169C91.1415 15.2557 91.5117 15.4752 91.9897 15.4752C92.4584 15.4752 92.8251 15.2522 93.0899 14.8052C93.3183 14.4352 93.4308 13.9964 93.4308 13.4886Z" fill="white"/>
<path d="M100.648 16.2455H99.5452L99.4538 15.6117H99.4199C99.0426 16.1171 98.5048 16.3704 97.8066 16.3704C97.2852 16.3704 96.8634 16.2035 96.5459 15.872C96.2577 15.5709 96.1136 15.1962 96.1136 14.7515C96.1136 14.0792 96.3948 13.5668 96.9607 13.212C97.5254 12.8572 98.3197 12.6833 99.3425 12.6914V12.5887C99.3425 11.8639 98.9606 11.5021 98.1955 11.5021C97.6507 11.5021 97.1704 11.6386 96.7556 11.9094L96.5061 11.1064C97.0192 10.7901 97.6531 10.6313 98.4006 10.6313C99.844 10.6313 100.568 11.39 100.568 12.9074V14.9336C100.568 15.4833 100.595 15.921 100.648 16.2455ZM99.373 14.3547V13.5061C98.0186 13.4828 97.3414 13.8528 97.3414 14.615C97.3414 14.9021 97.4188 15.1169 97.5769 15.2604C97.7351 15.404 97.9366 15.4752 98.1768 15.4752C98.4463 15.4752 98.6981 15.39 98.9278 15.2207C99.1586 15.0503 99.3003 14.8344 99.3531 14.5694C99.366 14.5099 99.373 14.4375 99.373 14.3547Z" fill="white"/>
<path d="M107.624 16.2455H106.535L106.477 15.3619H106.443C106.095 16.0342 105.503 16.3704 104.67 16.3704C104.004 16.3704 103.45 16.1101 103.011 15.5895C102.571 15.069 102.352 14.3932 102.352 13.5633C102.352 12.6727 102.59 11.9514 103.068 11.4005C103.531 10.8869 104.098 10.6302 104.773 10.6302C105.514 10.6302 106.033 10.8788 106.329 11.3772H106.352V8.21875H107.581V14.7632C107.581 15.2989 107.595 15.7926 107.624 16.2455ZM106.352 13.9251V13.0077C106.352 12.849 106.34 12.7206 106.318 12.6225C106.249 12.3284 106.1 12.081 105.874 11.8814C105.645 11.6818 105.37 11.5814 105.053 11.5814C104.595 11.5814 104.236 11.7623 103.972 12.1253C103.711 12.4883 103.579 12.9517 103.579 13.5178C103.579 14.0617 103.704 14.5029 103.956 14.8425C104.222 15.2044 104.581 15.3853 105.029 15.3853C105.432 15.3853 105.754 15.2347 105.999 14.9324C106.236 14.6535 106.352 14.3173 106.352 13.9251Z" fill="white"/>
<path d="M118.127 13.4489C118.127 14.2952 117.884 14.9885 117.399 15.5324C116.891 16.0915 116.218 16.3704 115.376 16.3704C114.566 16.3704 113.921 16.1031 113.438 15.5662C112.958 15.0305 112.717 14.3547 112.717 13.54C112.717 12.6879 112.965 11.9888 113.461 11.446C113.958 10.9033 114.626 10.6313 115.468 10.6313C116.278 10.6313 116.931 10.8986 117.423 11.4344C117.891 11.9549 118.127 12.6272 118.127 13.4489ZM116.854 13.4886C116.854 12.9809 116.744 12.5455 116.525 12.1825C116.266 11.7437 115.901 11.5242 115.423 11.5242C114.931 11.5242 114.556 11.7437 114.297 12.1825C114.076 12.5455 113.968 12.9879 113.968 13.5108C113.968 14.0185 114.078 14.4539 114.297 14.8169C114.563 15.2557 114.933 15.4752 115.411 15.4752C115.88 15.4752 116.249 15.2522 116.513 14.8052C116.74 14.4352 116.854 13.9964 116.854 13.4886Z" fill="white"/>
<path d="M124.726 16.2456H123.499V13.0942C123.499 12.1231 123.129 11.6375 122.385 11.6375C122.021 11.6375 121.727 11.7706 121.5 12.0379C121.272 12.3052 121.159 12.6203 121.159 12.981V16.2444H119.93V12.3157C119.93 11.8325 119.916 11.3084 119.886 10.7411H120.964L121.022 11.6014H121.056C121.2 11.3341 121.413 11.1135 121.692 10.9372C122.026 10.7318 122.397 10.6279 122.806 10.6279C123.32 10.6279 123.749 10.7937 124.09 11.1263C124.515 11.5337 124.726 12.1418 124.726 12.9495V16.2456Z" fill="white"/>
<path d="M132.991 11.6596H131.639V14.3324C131.639 15.0117 131.88 15.3514 132.355 15.3514C132.576 15.3514 132.758 15.3327 132.902 15.2942L132.934 16.2221C132.692 16.3131 132.373 16.3587 131.98 16.3587C131.495 16.3587 131.118 16.2116 130.845 15.9175C130.571 15.6233 130.435 15.1285 130.435 14.434V11.6596H129.628V10.7433H130.435V9.73488L131.638 9.37305V10.7422H132.99V11.6596H132.991Z" fill="white"/>
<path d="M139.492 16.2455H138.263V13.1174C138.263 12.1312 137.893 11.6374 137.151 11.6374C136.582 11.6374 136.193 11.9234 135.979 12.4953C135.943 12.6155 135.922 12.7626 135.922 12.9354V16.2443H134.695V8.21875H135.922V11.5347H135.945C136.332 10.9313 136.886 10.6302 137.604 10.6302C138.113 10.6302 138.533 10.7959 138.867 11.1285C139.283 11.5429 139.492 12.1592 139.492 12.9739V16.2455Z" fill="white"/>
<path d="M146.195 13.2344C146.195 13.4539 146.178 13.6383 146.149 13.7888H142.467C142.483 14.3328 142.659 14.7471 143 15.0342C143.312 15.291 143.713 15.4194 144.205 15.4194C144.75 15.4194 145.247 15.333 145.695 15.1591L145.887 16.0088C145.363 16.2353 144.747 16.3485 144.033 16.3485C143.178 16.3485 142.504 16.0975 142.017 15.5956C141.527 15.0938 141.285 14.4203 141.285 13.5752C141.285 12.7454 141.511 12.0544 141.967 11.5035C142.442 10.9152 143.085 10.6211 143.897 10.6211C144.692 10.6211 145.295 10.9152 145.703 11.5035C146.032 11.9704 146.195 12.5481 146.195 13.2344ZM145.023 12.9181C145.033 12.5551 144.952 12.2423 144.785 11.9785C144.572 11.6389 144.248 11.4685 143.808 11.4685C143.408 11.4685 143.081 11.6342 142.831 11.9669C142.627 12.2318 142.507 12.5481 142.467 12.9181H145.023Z" fill="white"/>
</svg>
