<svg width="127" height="45" viewBox="0 0 127 45" fill="none" xmlns="http://www.w3.org/2000/svg">
<g filter="url(#filter0_d)">
<rect x="9" y="5" width="109" height="27" rx="13.5" fill="#3683FC"/>
</g>
<path d="M29.2754 23L26.2034 14.6H27.8474L30.2234 21.428L32.6114 14.6H34.2314L31.1594 23H29.2754ZM36.0221 16.124C35.7421 16.124 35.5101 16.04 35.3261 15.872C35.1501 15.704 35.0621 15.492 35.0621 15.236C35.0621 14.98 35.1501 14.772 35.3261 14.612C35.5101 14.444 35.7421 14.36 36.0221 14.36C36.3021 14.36 36.5301 14.444 36.7061 14.612C36.8901 14.772 36.9821 14.98 36.9821 15.236C36.9821 15.492 36.8901 15.704 36.7061 15.872C36.5301 16.04 36.3021 16.124 36.0221 16.124ZM35.2541 23V17.048H36.7901V23H35.2541ZM41.2853 23.144C40.6853 23.144 40.1533 23.016 39.6893 22.76C39.2253 22.504 38.8613 22.144 38.5973 21.68C38.3333 21.216 38.2013 20.68 38.2013 20.072C38.2013 19.456 38.3293 18.908 38.5853 18.428C38.8493 17.948 39.2093 17.576 39.6653 17.312C40.1293 17.04 40.6733 16.904 41.2973 16.904C41.8813 16.904 42.3973 17.032 42.8453 17.288C43.2933 17.544 43.6413 17.896 43.8893 18.344C44.1453 18.784 44.2733 19.276 44.2733 19.82C44.2733 19.908 44.2693 20 44.2613 20.096C44.2613 20.192 44.2573 20.292 44.2493 20.396H39.7253C39.7573 20.86 39.9173 21.224 40.2053 21.488C40.5013 21.752 40.8573 21.884 41.2733 21.884C41.5853 21.884 41.8453 21.816 42.0533 21.68C42.2693 21.536 42.4293 21.352 42.5333 21.128H44.0933C43.9813 21.504 43.7933 21.848 43.5293 22.16C43.2733 22.464 42.9533 22.704 42.5693 22.88C42.1933 23.056 41.7653 23.144 41.2853 23.144ZM41.2973 18.152C40.9213 18.152 40.5893 18.26 40.3013 18.476C40.0133 18.684 39.8293 19.004 39.7493 19.436H42.7133C42.6893 19.044 42.5453 18.732 42.2813 18.5C42.0173 18.268 41.6893 18.152 41.2973 18.152ZM46.4948 23L44.7548 17.048H46.2788L47.3108 21.332L48.5108 17.048H50.2148L51.4148 21.332L52.4588 17.048H53.9828L52.2308 23H50.6348L49.3628 18.548L48.0908 23H46.4948ZM57.8473 23V14.6H61.2193C62.0913 14.6 62.7553 14.804 63.2113 15.212C63.6753 15.612 63.9073 16.128 63.9073 16.76C63.9073 17.288 63.7633 17.712 63.4753 18.032C63.1953 18.344 62.8513 18.556 62.4433 18.668C62.9233 18.764 63.3193 19.004 63.6313 19.388C63.9433 19.764 64.0993 20.204 64.0993 20.708C64.0993 21.372 63.8593 21.92 63.3793 22.352C62.8993 22.784 62.2193 23 61.3393 23H57.8473ZM59.3833 18.128H60.9913C61.4233 18.128 61.7553 18.028 61.9873 17.828C62.2193 17.628 62.3353 17.344 62.3353 16.976C62.3353 16.624 62.2193 16.348 61.9873 16.148C61.7633 15.94 61.4233 15.836 60.9673 15.836H59.3833V18.128ZM59.3833 21.752H61.0993C61.5553 21.752 61.9073 21.648 62.1553 21.44C62.4113 21.224 62.5393 20.924 62.5393 20.54C62.5393 20.148 62.4073 19.84 62.1433 19.616C61.8793 19.392 61.5233 19.28 61.0753 19.28H59.3833V21.752ZM68.2376 23.144C67.6616 23.144 67.1416 23.012 66.6776 22.748C66.2216 22.484 65.8576 22.12 65.5856 21.656C65.3216 21.184 65.1896 20.64 65.1896 20.024C65.1896 19.408 65.3256 18.868 65.5976 18.404C65.8696 17.932 66.2336 17.564 66.6896 17.3C67.1536 17.036 67.6736 16.904 68.2496 16.904C68.8176 16.904 69.3296 17.036 69.7856 17.3C70.2496 17.564 70.6136 17.932 70.8776 18.404C71.1496 18.868 71.2856 19.408 71.2856 20.024C71.2856 20.64 71.1496 21.184 70.8776 21.656C70.6136 22.12 70.2496 22.484 69.7856 22.748C69.3216 23.012 68.8056 23.144 68.2376 23.144ZM68.2376 21.812C68.6376 21.812 68.9856 21.664 69.2816 21.368C69.5776 21.064 69.7256 20.616 69.7256 20.024C69.7256 19.432 69.5776 18.988 69.2816 18.692C68.9856 18.388 68.6416 18.236 68.2496 18.236C67.8416 18.236 67.4896 18.388 67.1936 18.692C66.9056 18.988 66.7616 19.432 66.7616 20.024C66.7616 20.616 66.9056 21.064 67.1936 21.368C67.4896 21.664 67.8376 21.812 68.2376 21.812ZM75.5149 23.144C74.9389 23.144 74.4189 23.012 73.9549 22.748C73.4989 22.484 73.1349 22.12 72.8629 21.656C72.5989 21.184 72.4669 20.64 72.4669 20.024C72.4669 19.408 72.6029 18.868 72.8749 18.404C73.1469 17.932 73.5109 17.564 73.9669 17.3C74.4309 17.036 74.9509 16.904 75.5269 16.904C76.0949 16.904 76.6069 17.036 77.0629 17.3C77.5269 17.564 77.8909 17.932 78.1549 18.404C78.4269 18.868 78.5629 19.408 78.5629 20.024C78.5629 20.64 78.4269 21.184 78.1549 21.656C77.8909 22.12 77.5269 22.484 77.0629 22.748C76.5989 23.012 76.0829 23.144 75.5149 23.144ZM75.5149 21.812C75.9149 21.812 76.2629 21.664 76.5589 21.368C76.8549 21.064 77.0029 20.616 77.0029 20.024C77.0029 19.432 76.8549 18.988 76.5589 18.692C76.2629 18.388 75.9189 18.236 75.5269 18.236C75.1189 18.236 74.7669 18.388 74.4709 18.692C74.1829 18.988 74.0389 19.432 74.0389 20.024C74.0389 20.616 74.1829 21.064 74.4709 21.368C74.7669 21.664 75.1149 21.812 75.5149 21.812ZM79.9363 23V14.36H81.4723V19.46L83.5843 17.048H85.4083L82.9723 19.76L85.8043 23H83.8843L81.4723 20.012V23H79.9363Z" fill="white"/>
<path d="M101.979 18.87C101.196 16.5552 98.9946 15 96.5 15C94.0054 15 91.8038 16.5552 91.0212 18.87C90.9929 18.954 90.9929 19.046 91.0212 19.13C91.8038 21.4448 94.0054 23 96.5 23C98.9946 23 101.196 21.4448 101.979 19.13C102.007 19.046 102.007 18.954 101.979 18.87ZM96.5 21.4C95.2 21.4 94.1429 20.3236 94.1429 19C94.1429 17.6764 95.2 16.6 96.5 16.6C97.8 16.6 98.8571 17.6764 98.8571 19C98.8571 20.3236 97.8 21.4 96.5 21.4Z" fill="white"/>
<defs>
<filter id="filter0_d" x="0" y="0" width="127" height="45" filterUnits="userSpaceOnUse" color-interpolation-filters="sRGB">
<feFlood flood-opacity="0" result="BackgroundImageFix"/>
<feColorMatrix in="SourceAlpha" type="matrix" values="0 0 0 0 0 0 0 0 0 0 0 0 0 0 0 0 0 0 127 0"/>
<feOffset dy="4"/>
<feGaussianBlur stdDeviation="4.5"/>
<feColorMatrix type="matrix" values="0 0 0 0 0 0 0 0 0 0 0 0 0 0 0 0 0 0 0.13 0"/>
<feBlend mode="normal" in2="BackgroundImageFix" result="effect1_dropShadow"/>
<feBlend mode="normal" in="SourceGraphic" in2="effect1_dropShadow" result="shape"/>
</filter>
</defs>
</svg>
