<svg width="360" height="28" viewBox="0 0 360 28" fill="none" xmlns="http://www.w3.org/2000/svg">
<g opacity="0.3">
<circle cx="3.45687" cy="24.2001" r="3.45689" transform="rotate(-90 3.45687 24.2001)" fill="#BEC3CC"/>
<circle cx="24.1991" cy="24.2007" r="3.45689" transform="rotate(-90 24.1991 24.2007)" fill="#BEC3CC"/>
<circle cx="44.9413" cy="24.2007" r="3.45689" transform="rotate(-90 44.9413 24.2007)" fill="#BEC3CC"/>
<circle cx="65.6804" cy="24.2007" r="3.45689" transform="rotate(-90 65.6804 24.2007)" fill="#BEC3CC"/>
<circle cx="86.4217" cy="24.2007" r="3.45689" transform="rotate(-90 86.4217 24.2007)" fill="#BEC3CC"/>
<circle cx="107.163" cy="24.2007" r="3.45689" transform="rotate(-90 107.163 24.2007)" fill="#BEC3CC"/>
<circle cx="127.906" cy="24.2007" r="3.45689" transform="rotate(-90 127.906 24.2007)" fill="#BEC3CC"/>
<circle cx="148.648" cy="24.2007" r="3.45689" transform="rotate(-90 148.648 24.2007)" fill="#BEC3CC"/>
<circle cx="169.387" cy="24.2007" r="3.45689" transform="rotate(-90 169.387 24.2007)" fill="#BEC3CC"/>
<circle cx="190.129" cy="24.2007" r="3.45689" transform="rotate(-90 190.129 24.2007)" fill="#BEC3CC"/>
<circle cx="211.354" cy="24.2007" r="3.45689" transform="rotate(-180 211.354 24.2007)" fill="#BEC3CC"/>
<circle cx="232.095" cy="24.2007" r="3.45689" transform="rotate(-180 232.095 24.2007)" fill="#BEC3CC"/>
<circle cx="252.836" cy="24.2007" r="3.45689" transform="rotate(-180 252.836 24.2007)" fill="#BEC3CC"/>
<circle cx="273.579" cy="24.2007" r="3.45689" transform="rotate(-180 273.579 24.2007)" fill="#BEC3CC"/>
<circle cx="294.317" cy="24.2007" r="3.45689" transform="rotate(-180 294.317 24.2007)" fill="#BEC3CC"/>
<circle cx="315.061" cy="24.2007" r="3.45689" transform="rotate(-180 315.061 24.2007)" fill="#BEC3CC"/>
<circle cx="335.8" cy="24.2007" r="3.45689" transform="rotate(-180 335.8 24.2007)" fill="#BEC3CC"/>
<circle cx="356.543" cy="24.2007" r="3.45689" transform="rotate(-180 356.543 24.2007)" fill="#BEC3CC"/>


<circle cx="3.45687" cy="3.45986" r="3.45689" transform="rotate(-90 3.45687 3.45718)" fill="#BEC3CC"/>
<circle cx="24.1991" cy="3.45986" r="3.45689" transform="rotate(-90 24.1991 3.45986)" fill="#BEC3CC"/>
<circle cx="44.9374" cy="3.45986" r="3.45689" transform="rotate(-90 44.9374 3.45986)" fill="#BEC3CC"/>
<circle cx="65.6804" cy="3.45986" r="3.45689" transform="rotate(-90 65.6804 3.45986)" fill="#BEC3CC"/>
<circle cx="86.4217" cy="3.45986" r="3.45689" transform="rotate(-90 86.4217 3.45986)" fill="#BEC3CC"/>
<circle cx="107.163" cy="3.45986" r="3.45689" transform="rotate(-90 107.163 3.45986)" fill="#BEC3CC"/>
<circle cx="127.906" cy="3.45986" r="3.45689" transform="rotate(-90 127.906 3.45986)" fill="#BEC3CC"/>
<circle cx="148.644" cy="3.45986" r="3.45689" transform="rotate(-90 148.644 3.45986)" fill="#BEC3CC"/>
<circle cx="169.387" cy="3.45986" r="3.45689" transform="rotate(-90 169.387 3.45986)" fill="#BEC3CC"/>
<circle cx="190.129" cy="3.45986" r="3.45689" transform="rotate(-90 190.129 3.45986)" fill="#BEC3CC"/>
<circle cx="211.354" cy="3.45986" r="3.45689" transform="rotate(-180 211.354 3.45986)" fill="#BEC3CC"/>
<circle cx="232.095" cy="3.45986" r="3.45689" transform="rotate(-180 232.095 3.45986)" fill="#BEC3CC"/>
<circle cx="252.836" cy="3.45986" r="3.45689" transform="rotate(-180 252.836 3.45986)" fill="#BEC3CC"/>
<circle cx="273.579" cy="3.45986" r="3.45689" transform="rotate(-180 273.579 3.45986)" fill="#BEC3CC"/>
<circle cx="294.317" cy="3.45986" r="3.45689" transform="rotate(-180 294.317 3.45986)" fill="#BEC3CC"/>
<circle cx="315.061" cy="3.45986" r="3.45689" transform="rotate(-180 315.061 3.45986)" fill="#BEC3CC"/>
<circle cx="335.8" cy="3.45986" r="3.45689" transform="rotate(-180 335.8 3.45986)" fill="#BEC3CC"/>
<circle cx="356.543" cy="3.45986" r="3.45689" transform="rotate(-180 356.543 3.45986)" fill="#BEC3CC"/>
</g>
</svg>