<svg width="28" height="194" viewBox="0 0 28 194" fill="none" xmlns="http://www.w3.org/2000/svg">
<g opacity="0.3">
<circle cx="24.1998" cy="190.129" r="3.45689" transform="rotate(-180 24.1998 190.129)" fill="#BEC3CC"/>
<circle cx="24.2004" cy="169.387" r="3.45689" transform="rotate(-180 24.2004 169.387)" fill="#BEC3CC"/>
<circle cx="24.2004" cy="148.645" r="3.45689" transform="rotate(-180 24.2004 148.645)" fill="#BEC3CC"/>
<circle cx="24.2004" cy="127.906" r="3.45689" transform="rotate(-180 24.2004 127.906)" fill="#BEC3CC"/>
<circle cx="24.2004" cy="107.164" r="3.45689" transform="rotate(-180 24.2004 107.164)" fill="#BEC3CC"/>
<circle cx="24.2004" cy="86.4225" r="3.45689" transform="rotate(-180 24.2004 86.4225)" fill="#BEC3CC"/>
<circle cx="24.2004" cy="65.6798" r="3.45689" transform="rotate(-180 24.2004 65.6798)" fill="#BEC3CC"/>
<circle cx="24.2004" cy="44.9376" r="3.45689" transform="rotate(-180 24.2004 44.9376)" fill="#BEC3CC"/>
<circle cx="24.2004" cy="24.1994" r="3.45689" transform="rotate(-180 24.2004 24.1994)" fill="#BEC3CC"/>
<circle cx="24.2004" cy="3.45718" r="3.45689" transform="rotate(-180 24.2004 3.45718)" fill="#BEC3CC"/>
<circle cx="3.45689" cy="190.129" r="3.45689" transform="rotate(-180 3.45689 190.129)" fill="#BEC3CC"/>
<circle cx="3.45956" cy="169.387" r="3.45689" transform="rotate(-180 3.45956 169.387)" fill="#BEC3CC"/>
<circle cx="3.45956" cy="148.649" r="3.45689" transform="rotate(-180 3.45956 148.649)" fill="#BEC3CC"/>
<circle cx="3.45956" cy="127.906" r="3.45689" transform="rotate(-180 3.45956 127.906)" fill="#BEC3CC"/>
<circle cx="3.45956" cy="107.164" r="3.45689" transform="rotate(-180 3.45956 107.164)" fill="#BEC3CC"/>
<circle cx="3.45956" cy="86.4225" r="3.45689" transform="rotate(-180 3.45956 86.4225)" fill="#BEC3CC"/>
<circle cx="3.45957" cy="65.6798" r="3.45689" transform="rotate(-180 3.45957 65.6798)" fill="#BEC3CC"/>
<circle cx="3.45957" cy="44.9416" r="3.45689" transform="rotate(-180 3.45957 44.9416)" fill="#BEC3CC"/>
<circle cx="3.45957" cy="24.1994" r="3.45689" transform="rotate(-180 3.45957 24.1994)" fill="#BEC3CC"/>
<circle cx="3.45956" cy="3.45718" r="3.45689" transform="rotate(-180 3.45956 3.45718)" fill="#BEC3CC"/>
</g>
</svg>
