<svg width="49" height="195" viewBox="0 0 49 195" fill="none" xmlns="http://www.w3.org/2000/svg">
<circle cx="3.45689" cy="4.16395" r="3.45689" fill="#3683FC"/>
<circle cx="3.45689" cy="24.9061" r="3.45689" fill="#3683FC"/>
<circle cx="3.45689" cy="45.6444" r="3.45689" fill="#3683FC"/>
<circle cx="3.45689" cy="66.3875" r="3.45689" fill="#3683FC"/>
<circle cx="3.45689" cy="87.1288" r="3.45689" fill="#3683FC"/>
<circle cx="3.45689" cy="107.87" r="3.45689" fill="#3683FC"/>
<circle cx="3.45689" cy="128.613" r="3.45689" fill="#3683FC"/>
<circle cx="3.45689" cy="149.351" r="3.45689" fill="#3683FC"/>
<circle cx="3.45689" cy="170.094" r="3.45689" fill="#3683FC"/>
<circle cx="3.45689" cy="190.836" r="3.45689" fill="#3683FC"/>
<circle cx="24.1994" cy="4.16395" r="3.45689" fill="#3683FC"/>
<circle cx="24.1985" cy="24.9061" r="3.45689" fill="#3683FC"/>
<circle cx="24.1985" cy="45.6444" r="3.45689" fill="#3683FC"/>
<circle cx="24.1985" cy="66.3875" r="3.45689" fill="#3683FC"/>
<circle cx="24.1985" cy="87.1288" r="3.45689" fill="#3683FC"/>
<circle cx="24.1985" cy="107.87" r="3.45689" fill="#3683FC"/>
<circle cx="24.1985" cy="128.613" r="3.45689" fill="#3683FC"/>
<circle cx="24.1985" cy="149.351" r="3.45689" fill="#3683FC"/>
<circle cx="24.1985" cy="170.094" r="3.45689" fill="#3683FC"/>
<circle cx="24.1985" cy="190.836" r="3.45689" fill="#3683FC"/>
<circle cx="44.9392" cy="4.16395" r="3.45689" fill="#3683FC"/>
<circle cx="44.9372" cy="24.9061" r="3.45689" fill="#3683FC"/>
<circle cx="44.9372" cy="45.6444" r="3.45689" fill="#3683FC"/>
<circle cx="44.9371" cy="66.3875" r="3.45689" fill="#3683FC"/>
<circle cx="44.9371" cy="87.1288" r="3.45689" fill="#3683FC"/>
<circle cx="44.9371" cy="107.87" r="3.45689" fill="#3683FC"/>
<circle cx="44.9372" cy="128.613" r="3.45689" fill="#3683FC"/>
<circle cx="44.9372" cy="149.351" r="3.45689" fill="#3683FC"/>
<circle cx="44.9372" cy="170.094" r="3.45689" fill="#3683FC"/>
<circle cx="44.9371" cy="190.836" r="3.45689" fill="#3683FC"/>
</svg>
