<svg width="166" height="49" viewBox="0 0 166 49" fill="none" xmlns="http://www.w3.org/2000/svg">
<path d="M159.852 0H6.14815C2.75262 0 0 2.74226 0 6.125V42.875C0 46.2577 2.75262 49 6.14815 49H159.852C163.247 49 166 46.2577 166 42.875V6.125C166 2.74226 163.247 0 159.852 0Z" fill="#131227"/>
<path d="M83.788 26.6437C82.7555 26.6486 81.7475 26.958 80.8913 27.533C80.0352 28.108 79.3692 28.9228 78.9774 29.8745C78.5857 30.8263 78.4857 31.8723 78.6901 32.8806C78.8945 33.8889 79.3941 34.8143 80.126 35.5399C80.8578 36.2656 81.789 36.759 82.8021 36.9579C83.8151 37.1568 84.8646 37.0523 85.8181 36.6575C86.7716 36.2628 87.5863 35.5955 88.1595 34.7398C88.7326 33.8842 89.0385 32.8786 89.0385 31.85C89.0485 31.1614 88.9194 30.4779 88.6588 29.8402C88.3981 29.2024 88.0114 28.6234 87.5215 28.1376C87.0316 27.6518 86.4485 27.2692 85.8071 27.0126C85.1657 26.756 84.4791 26.6305 83.788 26.6437ZM83.788 35.0105C83.153 35.0547 82.5193 34.9076 81.9693 34.5883C81.4193 34.269 80.9785 33.7923 80.7041 33.2201C80.4297 32.6478 80.3344 32.0066 80.4307 31.3798C80.527 30.7529 80.8103 30.1694 81.2438 29.705C81.6774 29.2407 82.2411 28.9171 82.8618 28.7762C83.4824 28.6353 84.1313 28.6836 84.724 28.915C85.3167 29.1463 85.8258 29.5499 86.1852 30.0734C86.5445 30.5968 86.7375 31.2158 86.7391 31.85C86.7589 32.2518 86.6977 32.6535 86.5592 33.0314C86.4207 33.4093 86.2077 33.7557 85.9326 34.0503C85.6576 34.3448 85.3261 34.5816 84.9578 34.7465C84.5895 34.9114 84.1917 35.0011 83.788 35.0105ZM72.3401 26.6437C71.3071 26.6461 70.2979 26.9535 69.4401 27.5271C68.5823 28.1006 67.9144 28.9146 67.5208 29.8661C67.1271 30.8176 67.0254 31.864 67.2284 32.8732C67.4314 33.8823 67.9301 34.8088 68.6615 35.5357C69.3928 36.2625 70.324 36.7572 71.3374 36.9571C72.3508 37.157 73.4009 37.0531 74.3551 36.6587C75.3093 36.2643 76.1248 35.597 76.6985 34.7411C77.2722 33.8852 77.5783 32.8791 77.5784 31.85C77.5884 31.1614 77.4592 30.4779 77.1986 29.8402C76.938 29.2024 76.5512 28.6234 76.0613 28.1376C75.5714 27.6518 74.9884 27.2692 74.347 27.0126C73.7056 26.756 73.0189 26.6305 72.3278 26.6437H72.3401ZM72.3401 35.0105C71.7048 35.0572 71.0701 34.9123 70.5186 34.5947C69.9671 34.277 69.5244 33.8013 69.2481 33.2294C68.9717 32.6576 68.8746 32.0161 68.9694 31.3886C69.0641 30.761 69.3463 30.1763 69.7792 29.7107C70.2121 29.2452 70.7757 28.9202 71.3966 28.7782C72.0175 28.6362 72.6669 28.6837 73.2603 28.9145C73.8538 29.1453 74.3637 29.5488 74.7237 30.0723C75.0837 30.5959 75.2772 31.2153 75.2789 31.85C75.2988 32.2518 75.2376 32.6535 75.0991 33.0314C74.9606 33.4093 74.7475 33.7557 74.4725 34.0503C74.1974 34.3448 73.866 34.5816 73.4976 34.7465C73.1293 34.9114 72.7316 35.0011 72.3278 35.0105H72.3401ZM58.7035 28.2485V30.4535H64.0155C63.9323 31.492 63.4989 32.472 62.7859 33.2342C62.2545 33.7735 61.6156 34.196 60.9104 34.4745C60.2052 34.753 59.4492 34.8813 58.6912 34.8512C57.1259 34.8512 55.6246 34.2317 54.5177 33.129C53.4109 32.0263 52.789 30.5307 52.789 28.9712C52.789 27.4118 53.4109 25.9162 54.5177 24.8134C55.6246 23.7107 57.1259 23.0912 58.6912 23.0912C60.1887 23.0669 61.6347 23.6352 62.7121 24.6715L64.2738 23.1157C63.5464 22.382 62.6786 21.8012 61.7218 21.4077C60.765 21.0142 59.7386 20.816 58.7035 20.825C57.6104 20.7826 56.5199 20.9605 55.4974 21.348C54.475 21.7355 53.5415 22.3247 52.7531 23.0802C51.9646 23.8357 51.3374 24.742 50.9089 25.7448C50.4805 26.7476 50.2596 27.8262 50.2596 28.9161C50.2596 30.006 50.4805 31.0846 50.9089 32.0874C51.3374 33.0902 51.9646 33.9965 52.7531 34.752C53.5415 35.5075 54.475 36.0967 55.4974 36.4842C56.5199 36.8717 57.6104 37.0496 58.7035 37.0072C59.756 37.0546 60.8065 36.8769 61.7843 36.486C62.7621 36.095 63.6445 35.5 64.3721 34.741C65.6604 33.3309 66.3482 31.4773 66.2904 29.5715C66.2943 29.1072 66.2531 28.6436 66.1674 28.1872L58.7035 28.2485ZM114.418 29.9635C114.097 29.0236 113.498 28.2029 112.698 27.6101C111.899 27.0172 110.938 26.6803 109.942 26.6437C109.27 26.6424 108.604 26.7786 107.986 27.0437C107.368 27.3089 106.812 27.6975 106.351 28.1854C105.89 28.6734 105.534 29.2503 105.306 29.8806C105.078 30.5109 104.982 31.1812 105.024 31.85C105.009 32.5346 105.132 33.2153 105.387 33.8512C105.642 34.4872 106.024 35.0654 106.508 35.5514C106.992 36.0374 107.57 36.4211 108.207 36.6796C108.843 36.9382 109.525 37.0663 110.213 37.0562C111.073 37.0608 111.921 36.8529 112.68 36.451C113.44 36.0491 114.088 35.4657 114.566 34.7532L112.783 33.5282C112.517 33.9702 112.14 34.3357 111.689 34.5891C111.239 34.8425 110.73 34.975 110.213 34.9737C109.68 34.9939 109.154 34.8541 108.702 34.5722C108.25 34.2904 107.894 33.8797 107.68 33.3935L114.676 30.5147L114.418 29.9635ZM107.286 31.703C107.261 31.3241 107.312 30.944 107.437 30.5851C107.561 30.2262 107.756 29.8955 108.01 29.6126C108.265 29.3297 108.573 29.1002 108.917 28.9374C109.262 28.7747 109.635 28.6821 110.016 28.665C110.413 28.6389 110.808 28.7295 111.154 28.9255C111.499 29.1215 111.779 29.4143 111.959 29.7675L107.286 31.703ZM101.605 36.75H103.905V21.4375H101.605V36.75ZM97.8427 27.8075H97.7566C97.41 27.4215 96.9855 27.1128 96.5108 26.9017C96.0361 26.6906 95.522 26.5818 95.0022 26.5825C93.6585 26.6474 92.3913 27.2249 91.4633 28.1953C90.5353 29.1657 90.0177 30.4546 90.0177 31.7949C90.0177 33.1351 90.5353 34.424 91.4633 35.3944C92.3913 36.3648 93.6585 36.9423 95.0022 37.0072C95.5233 37.016 96.0399 36.9108 96.5158 36.6991C96.9917 36.4875 97.4152 36.1745 97.7566 35.7822H97.8304V36.5295C97.8304 38.5262 96.7606 39.592 95.0391 39.592C94.4657 39.5786 93.9093 39.3956 93.4407 39.0662C92.9721 38.7368 92.6125 38.2759 92.4077 37.7422L90.4034 38.5752C90.7807 39.4895 91.4235 40.2707 92.2495 40.8185C93.0754 41.3663 94.0468 41.6559 95.0391 41.65C97.732 41.65 99.9576 40.0697 99.9576 36.2232V26.95H97.8427V27.8075ZM95.2112 35.0105C94.4181 34.9408 93.6799 34.5777 93.1421 33.9927C92.6044 33.4077 92.3061 32.6432 92.3061 31.85C92.3061 31.0567 92.6044 30.2923 93.1421 29.7072C93.6799 29.1222 94.4181 28.7591 95.2112 28.6895C95.6045 28.7096 95.9898 28.8079 96.3443 28.9786C96.6988 29.1493 97.0155 29.389 97.2756 29.6836C97.5357 29.9781 97.734 30.3215 97.8589 30.6936C97.9837 31.0656 98.0326 31.4588 98.0025 31.85C98.036 32.2428 97.9893 32.6384 97.865 33.0127C97.7407 33.387 97.5415 33.7323 97.2794 34.0278C97.0174 34.3232 96.6979 34.5626 96.3403 34.7315C95.9827 34.9004 95.5944 34.9953 95.1989 35.0105H95.2112ZM125.19 21.4375H119.693V36.75H121.993V30.9435H125.202C125.857 30.9904 126.515 30.9023 127.135 30.6847C127.755 30.4671 128.323 30.1246 128.804 29.6787C129.284 29.2327 129.668 28.6928 129.93 28.0927C130.193 27.4926 130.328 26.845 130.328 26.1905C130.328 25.5359 130.193 24.8884 129.93 24.2883C129.668 23.6881 129.284 23.1482 128.804 22.7023C128.323 22.2563 127.755 21.9139 127.135 21.6963C126.515 21.4787 125.857 21.3906 125.202 21.4375H125.19ZM125.19 28.7875H121.98V23.569H125.239C125.938 23.569 126.609 23.8458 127.104 24.3386C127.598 24.8314 127.876 25.4997 127.876 26.1966C127.876 26.8935 127.598 27.5618 127.104 28.0546C126.609 28.5474 125.938 28.8242 125.239 28.8242L125.19 28.7875ZM139.367 26.5825C138.53 26.5326 137.697 26.7275 136.969 27.1432C136.242 27.5589 135.652 28.1772 135.273 28.9222L137.314 29.7675C137.515 29.398 137.82 29.0947 138.191 28.8946C138.562 28.6945 138.984 28.6062 139.404 28.6405C139.696 28.6065 139.992 28.6308 140.274 28.7119C140.557 28.793 140.82 28.9294 141.049 29.113C141.278 29.2966 141.468 29.5237 141.608 29.7812C141.747 30.0387 141.834 30.3214 141.863 30.6127V30.772C141.125 30.3824 140.301 30.1805 139.466 30.184C137.265 30.184 135.039 31.409 135.039 33.6262C135.061 34.099 135.177 34.5626 135.382 34.9897C135.587 35.4168 135.875 35.7987 136.231 36.1127C136.586 36.4268 137.001 36.6667 137.451 36.8182C137.901 36.9698 138.377 37.0299 138.851 36.995C139.43 37.0364 140.009 36.9218 140.529 36.6631C141.048 36.4045 141.488 36.0113 141.802 35.525H141.876V36.75H144.089V30.8577C144.089 28.175 142.048 26.6192 139.429 26.6192L139.367 26.5825ZM139.084 34.9737C138.334 34.9737 137.289 34.594 137.289 33.6752C137.289 32.4502 138.593 32.046 139.748 32.046C140.479 32.028 141.201 32.2057 141.839 32.5605C141.762 33.2237 141.447 33.8369 140.952 34.2871C140.457 34.7373 139.816 34.9942 139.146 35.0105L139.084 34.9737ZM152.155 26.95L149.524 33.5895H149.45L146.72 26.95H144.261L148.356 36.2355L146.02 41.3927H148.417L154.713 26.95H152.155ZM131.485 36.75H133.785V21.4375H131.485V36.75Z" fill="white"/>
<path d="M58.2346 12.6204C58.2555 13.0697 58.1845 13.5186 58.026 13.9397C57.8674 14.3609 57.6246 14.7456 57.3123 15.0704C56.9636 15.4313 56.5425 15.7149 56.0764 15.9027C55.6103 16.0906 55.1097 16.1785 54.6072 16.1607C53.8448 16.1547 53.1011 15.9248 52.4693 15.4996C51.8375 15.0744 51.3458 14.473 51.0556 13.7706C50.7655 13.0682 50.6898 12.2961 50.8382 11.5511C50.9866 10.8061 51.3523 10.1212 51.8897 9.58241C52.2428 9.22322 52.6662 8.94004 53.1337 8.75041C53.6011 8.56077 54.1026 8.46871 54.6072 8.47991C55.127 8.47818 55.6417 8.5824 56.1196 8.78616C56.5646 8.96495 56.9606 9.24622 57.2755 9.60691L56.6238 10.2562C56.3783 9.96534 56.0684 9.73536 55.7184 9.58441C55.3684 9.43346 54.988 9.36568 54.6072 9.38641C54.2231 9.38453 53.8426 9.45994 53.4884 9.60812C53.1343 9.7563 52.8139 9.97419 52.5463 10.2487C52.2788 10.5233 52.0697 10.8488 51.9315 11.2058C51.7933 11.5629 51.7289 11.944 51.7421 12.3264C51.7341 12.8974 51.8959 13.458 52.2073 13.9375C52.5187 14.417 52.9657 14.7938 53.4918 15.0205C54.0179 15.2472 54.5997 15.3136 55.1636 15.2113C55.7276 15.109 56.2485 14.8426 56.6606 14.4457C57.039 14.0372 57.2572 13.5067 57.2755 12.9512H54.6072V12.0692H58.1854C58.2182 12.2511 58.2346 12.4356 58.2346 12.6204ZM63.8663 9.55791H60.5463V11.8854H63.5712V12.7674H60.5463V15.0949H63.8663V16.0014H59.5626V8.65141H63.8663V9.55791ZM67.8995 16.0014H66.9526V9.55791H64.8869V8.65141H70.0144V9.55791H67.8995V16.0014ZM73.6295 16.0014V8.65141H74.5763V16.0014H73.6295ZM78.7817 16.0014H77.8349V9.55791H75.7691V8.65141H80.8352V9.55791H78.7817V16.0014ZM90.4386 15.0459C89.7197 15.7581 88.7472 16.1578 87.7334 16.1578C86.7196 16.1578 85.747 15.7581 85.0282 15.0459C84.3295 14.3091 83.9402 13.3339 83.9402 12.3203C83.9402 11.3067 84.3295 10.3315 85.0282 9.59466C85.3825 9.23909 85.804 8.95689 86.2682 8.76432C86.7325 8.57174 87.2305 8.4726 87.7334 8.4726C88.2363 8.4726 88.7342 8.57174 89.1985 8.76432C89.6628 8.95689 90.0843 9.23909 90.4386 9.59466C91.14 10.3301 91.5312 11.3058 91.5312 12.3203C91.5312 13.3348 91.14 14.3105 90.4386 15.0459ZM85.7291 14.4334C86.2614 14.9615 86.9821 15.258 87.7334 15.258C88.4847 15.258 89.2053 14.9615 89.7377 14.4334C90.263 13.8565 90.554 13.1054 90.554 12.3264C90.554 11.5474 90.263 10.7964 89.7377 10.2194C89.2053 9.69128 88.4847 9.39477 87.7334 9.39477C86.9821 9.39477 86.2614 9.69128 85.7291 10.2194C85.2037 10.7964 84.9127 11.5474 84.9127 12.3264C84.9127 13.1054 85.2037 13.8565 85.7291 14.4334ZM92.8609 16.0014V8.65141H94.0168L97.6073 14.3722V8.65141H98.5541V16.0014H97.5704L93.82 10.0112V16.0014H92.8609Z" fill="white"/>
<path fill-rule="evenodd" clip-rule="evenodd" d="M87.7334 8.5951C87.2467 8.5951 86.7648 8.69104 86.3155 8.87741C85.8667 9.06358 85.4592 9.3363 85.1165 9.67989C84.44 10.3938 84.0632 11.3385 84.0632 12.3203C84.0632 13.302 84.44 14.2465 85.1163 14.9604C85.8119 15.6489 86.7527 16.0353 87.7334 16.0353C88.7141 16.0353 89.655 15.6488 90.3506 14.9603C91.0296 14.2478 91.4082 13.3028 91.4082 12.3203C91.4082 11.3377 91.0295 10.3926 90.3504 9.68004C90.0077 9.33638 89.6002 9.0636 89.1513 8.87741C88.702 8.69104 88.2201 8.5951 87.7334 8.5951ZM86.221 8.65123C86.7002 8.45244 87.2142 8.3501 87.7334 8.3501C88.2525 8.3501 88.7665 8.45244 89.2458 8.65123C89.725 8.85002 90.1601 9.14132 90.5258 9.50835L90.5277 9.51025C91.2509 10.2684 91.6541 11.2744 91.6541 12.3203C91.6541 13.3662 91.2509 14.3721 90.5277 15.1303L90.5253 15.1328C89.7834 15.8678 88.7797 16.2803 87.7334 16.2803C86.6871 16.2803 85.6834 15.8677 84.9415 15.1328L84.9388 15.1301C84.2185 14.3705 83.8173 13.3652 83.8173 12.3203C83.8173 11.2754 84.2185 10.2701 84.9388 9.51053L84.9409 9.50833C85.3066 9.14129 85.7417 8.85002 86.221 8.65123ZM54.6044 8.60238C54.1167 8.59155 53.6319 8.68055 53.18 8.86386C52.7282 9.04718 52.3189 9.32091 51.9775 9.66813L51.9769 9.66875C51.4566 10.1905 51.1025 10.8536 50.9588 11.5749C50.8151 12.2963 50.8884 13.0439 51.1693 13.724C51.4503 14.404 51.9264 14.9864 52.5381 15.3981C53.1499 15.8097 53.8699 16.0324 54.6081 16.0382L54.6115 16.0382C55.0968 16.0554 55.5802 15.9706 56.0303 15.7892C56.4803 15.6078 56.8869 15.334 57.2236 14.9856C57.5244 14.6727 57.7582 14.3023 57.9108 13.8967C58.0635 13.4911 58.1319 13.0588 58.1117 12.6261L58.2346 12.6204L58.1116 12.6204C58.1117 12.4769 58.1013 12.3336 58.0808 12.1917H54.7301V12.8287H57.4025L57.3984 12.9552C57.3792 13.5401 57.1494 14.0986 56.751 14.5287L56.7462 14.5339C56.3166 14.9476 55.7735 15.2252 55.1857 15.3318C54.5978 15.4384 53.9914 15.3692 53.443 15.1329C52.8946 14.8966 52.4287 14.5038 52.1041 14.004C51.78 13.5051 51.6113 12.9218 51.6191 12.3277C51.6057 11.9298 51.6729 11.5332 51.8167 11.1618C51.9609 10.7894 52.179 10.4498 52.4581 10.1634C52.7372 9.87703 53.0714 9.64974 53.4408 9.49518C53.8091 9.34108 54.2047 9.26243 54.6041 9.26389C55.0027 9.24276 55.4009 9.31398 55.7672 9.472C56.0937 9.61281 56.387 9.81912 56.6291 10.0775L57.1058 9.60266C56.8172 9.29706 56.4651 9.05707 56.0736 8.89977L56.0712 8.8988C55.6087 8.70162 55.1106 8.60074 54.6076 8.60241L54.6044 8.60238ZM58.3575 12.6176C58.3788 13.0825 58.3051 13.5469 58.1411 13.9828C57.9767 14.4195 57.725 14.8183 57.4011 15.1551C57.0404 15.5284 56.6046 15.822 56.1225 16.0163C55.6409 16.2104 55.1237 16.3013 54.6045 16.2831C53.8185 16.2767 53.0518 16.0394 52.4005 15.6011C51.7487 15.1624 51.2413 14.5419 50.9419 13.8172C50.6425 13.0925 50.5645 12.2959 50.7176 11.5273C50.8706 10.7587 51.2479 10.0523 51.8021 9.49638C52.167 9.12536 52.6044 8.83286 53.0873 8.63695C53.5698 8.44119 54.0875 8.34605 54.6083 8.3574C55.144 8.35584 55.6743 8.46324 56.1668 8.67304C56.6293 8.85909 57.041 9.15156 57.3682 9.52653L57.4435 9.61275L56.6159 10.4372L56.5296 10.335C56.2965 10.0587 56.002 9.84023 55.6695 9.69683C55.337 9.55343 54.9756 9.48903 54.6139 9.50873L54.6066 9.50912C54.239 9.50733 53.8749 9.57927 53.5361 9.72106C53.1972 9.86285 52.8906 10.0714 52.6346 10.3341C52.3786 10.5968 52.1784 10.9083 52.0462 11.2499C51.914 11.5915 51.8523 11.9563 51.865 12.3222L51.8652 12.3281C51.8575 12.875 52.0124 13.4118 52.3106 13.8709C52.6088 14.3301 53.0368 14.691 53.5406 14.9081C54.0445 15.1252 54.6015 15.1887 55.1416 15.0908C55.6805 14.993 56.1784 14.7388 56.5726 14.36C56.9008 14.0047 57.1012 13.5523 57.1447 13.0737H54.4842V11.9467H58.2882L58.3064 12.0475C58.3403 12.2357 58.3574 12.4264 58.3575 12.6176ZM59.4396 8.52891H63.9892V9.68041H60.6692V11.7629H63.6941V12.8899H60.6692V14.9724H63.9892V16.1239H59.4396V8.52891ZM59.6855 8.77391V15.8789H63.7433V15.2174H60.4233V12.6449H63.4482V12.0079H60.4233V9.43541H63.7433V8.77391H59.6855ZM64.7639 8.52891H70.1374V9.68041H68.0224V16.1239H66.8297V9.68041H64.7639V8.52891ZM65.0098 8.77391V9.43541H67.0756V15.8789H67.7765V9.43541H69.8915V8.77391H65.0098ZM73.5066 8.52891H74.6993V16.1239H73.5066V8.52891ZM73.7525 8.77391V15.8789H74.4534V8.77391H73.7525ZM75.6461 8.52891H80.9581V9.68041H78.9046V16.1239H77.7119V9.68041H75.6461V8.52891ZM75.892 8.77391V9.43541H77.9578V15.8789H78.6587V9.43541H80.7122V8.77391H75.892ZM92.738 8.52891H94.0849L97.4843 13.9452V8.52891H98.6771V16.1239H97.5022L93.943 10.439V16.1239H92.738V8.52891ZM92.9839 8.77391V15.8789H93.6971V9.58328L97.6386 15.8789H98.4312V8.77391H97.7303V14.7991L93.9486 8.77391H92.9839ZM85.6423 10.1326C86.1977 9.58162 86.9496 9.27227 87.7334 9.27227C88.5172 9.27227 89.2691 9.58162 89.8244 10.1326L89.8289 10.137C90.3747 10.7365 90.677 11.517 90.677 12.3264C90.677 13.1358 90.3746 13.9162 89.8288 14.5157L89.8246 14.5203C89.2692 15.0713 88.5172 15.3805 87.7334 15.3805C86.9496 15.3805 86.1977 15.0712 85.6423 14.5202L85.7291 14.4334L85.638 14.5157C85.0921 13.9162 84.7898 13.1358 84.7898 12.3264C84.7898 11.517 85.0921 10.7366 85.638 10.1371L85.6423 10.1326ZM85.8181 14.3488C86.3272 14.8527 87.0157 15.1355 87.7334 15.1355C88.4511 15.1355 89.1396 14.8527 89.6487 14.3488C90.1522 13.7947 90.4311 13.0739 90.4311 12.3264C90.4311 11.5789 90.1522 10.8581 89.6487 10.304C89.1396 9.80012 88.4511 9.51727 87.7334 9.51727C87.0157 9.51727 86.3272 9.80012 85.8181 10.304C85.3146 10.8581 85.0357 11.5789 85.0357 12.3264C85.0357 13.0739 85.3146 13.7947 85.8181 14.3488Z" fill="white"/>
<path d="M12.8393 9.23614C12.4385 9.71525 12.2363 10.3286 12.2737 10.9511V38.0481C12.2363 38.6707 12.4385 39.284 12.8393 39.7631L12.9254 39.8489L28.1605 24.6834V24.3281L12.9254 9.15039L12.8393 9.23614Z" fill="url(#paint0_linear)"/>
<path d="M33.2008 29.7428L28.1593 24.6836V24.3283L33.2008 19.2568L33.3115 19.3181L39.349 22.7358C41.0704 23.7036 41.0704 25.2961 39.349 26.2761L33.3361 29.6816L33.2008 29.7428Z" fill="url(#paint1_linear)"/>
<path d="M33.3499 29.6695L28.1608 24.5L12.8397 39.7635C13.1906 40.0708 13.6382 40.2463 14.1052 40.2597C14.5722 40.2732 15.0292 40.1236 15.3973 39.837L33.3622 29.6695" fill="url(#paint2_linear)"/>
<path d="M33.3472 19.3303L15.3823 9.16283C15.0142 8.87619 14.5572 8.72667 14.0902 8.74009C13.6232 8.75351 13.1756 8.92903 12.8247 9.23633L28.1581 24.4998L33.3472 19.3303Z" fill="url(#paint3_linear)"/>
<path opacity="0.2" d="M33.2023 29.5591L15.385 39.6653C15.03 39.9298 14.5986 40.0726 14.1554 40.0726C13.7121 40.0726 13.2807 39.9298 12.9257 39.6653L12.8397 39.7511L12.9257 39.8368C13.2799 40.1032 13.7116 40.2472 14.1554 40.2472C14.5991 40.2472 15.0308 40.1032 15.385 39.8368L33.3499 29.6693L33.2023 29.5591Z" fill="black"/>
<path opacity="0.12" d="M12.8393 39.592C12.4385 39.1129 12.2363 38.4995 12.2737 37.877V38.0607C12.2363 38.6833 12.4385 39.2966 12.8393 39.7757L12.9254 39.69L12.8393 39.592ZM39.3501 26.0925L33.202 29.5593L33.3127 29.6695L39.3501 26.264C39.6927 26.1037 39.9868 25.8562 40.2027 25.5465C40.4186 25.2368 40.5486 24.8758 40.5798 24.5C40.5106 24.8414 40.3638 25.1625 40.1507 25.4386C39.9375 25.7146 39.6636 25.9383 39.3501 26.0925Z" fill="black"/>
<path opacity="0.25" d="M15.3835 9.334L39.349 22.907C39.6625 23.0612 39.9363 23.2849 40.1495 23.5609C40.3626 23.837 40.5094 24.1581 40.5786 24.4995C40.5475 24.1237 40.4174 23.7627 40.2015 23.453C39.9856 23.1433 39.6915 22.8958 39.349 22.7355L15.3835 9.1625C13.662 8.19475 12.2602 9.00325 12.2602 10.9632V11.147C12.2971 9.17475 13.6743 8.36625 15.3835 9.334Z" fill="white"/>
<defs>
<linearGradient id="paint0_linear" x1="26.8079" y1="10.6694" x2="6.25256" y2="31.3024" gradientUnits="userSpaceOnUse">
<stop stop-color="#00A0FF"/>
<stop offset="0.01" stop-color="#00A1FF"/>
<stop offset="0.26" stop-color="#00BEFF"/>
<stop offset="0.51" stop-color="#00D2FF"/>
<stop offset="0.76" stop-color="#00DFFF"/>
<stop offset="1" stop-color="#00E3FF"/>
</linearGradient>
<linearGradient id="paint1_linear" x1="41.5992" y1="24.4998" x2="11.8544" y2="24.4998" gradientUnits="userSpaceOnUse">
<stop stop-color="#FFE000"/>
<stop offset="0.41" stop-color="#FFBD00"/>
<stop offset="0.78" stop-color="#FFA500"/>
<stop offset="1" stop-color="#FF9C00"/>
</linearGradient>
<linearGradient id="paint2_linear" x1="30.534" y1="27.3175" x2="2.65319" y2="55.2914" gradientUnits="userSpaceOnUse">
<stop stop-color="#FF3A44"/>
<stop offset="1" stop-color="#C31162"/>
</linearGradient>
<linearGradient id="paint3_linear" x1="8.97592" y1="0.220328" x2="21.4218" y2="12.7133" gradientUnits="userSpaceOnUse">
<stop stop-color="#32A071"/>
<stop offset="0.07" stop-color="#2DA771"/>
<stop offset="0.48" stop-color="#15CF74"/>
<stop offset="0.8" stop-color="#06E775"/>
<stop offset="1" stop-color="#00F076"/>
</linearGradient>
</defs>
</svg>
