<svg width="401" height="29" viewBox="0 0 401 29" fill="none" xmlns="http://www.w3.org/2000/svg">
<g opacity="0.3">
<circle cx="397.543" cy="25.1291" r="3.45689" transform="rotate(-180 397.543 25.1291)" fill="#BEC3CC"/>
<circle cx="397.543" cy="4.38686" r="3.45689" transform="rotate(-180 397.543 4.38686)" fill="#BEC3CC"/>
<circle cx="190.129" cy="25.1291" r="3.45689" transform="rotate(-180 190.129 25.1291)" fill="#BEC3CC"/>
<circle cx="190.132" cy="4.38686" r="3.45689" transform="rotate(-180 190.132 4.38686)" fill="#BEC3CC"/>
<circle cx="293.836" cy="25.1291" r="3.45689" transform="rotate(-180 293.836 25.1291)" fill="#BEC3CC"/>
<circle cx="293.836" cy="4.38686" r="3.45689" transform="rotate(-180 293.836 4.38686)" fill="#BEC3CC"/>
<circle cx="86.4228" cy="25.1291" r="3.45689" transform="rotate(-180 86.4228 25.1291)" fill="#BEC3CC"/>
<circle cx="86.4233" cy="4.38686" r="3.45689" transform="rotate(-180 86.4233 4.38686)" fill="#BEC3CC"/>
<circle cx="376.8" cy="25.1291" r="3.45689" transform="rotate(-180 376.8 25.1291)" fill="#BEC3CC"/>
<circle cx="376.801" cy="4.38686" r="3.45689" transform="rotate(-180 376.801 4.38686)" fill="#BEC3CC"/>
<circle cx="169.384" cy="25.1291" r="3.45689" transform="rotate(-180 169.384 25.1291)" fill="#BEC3CC"/>
<circle cx="169.387" cy="4.38686" r="3.45689" transform="rotate(-180 169.387 4.38686)" fill="#BEC3CC"/>
<circle cx="273.095" cy="25.1291" r="3.45689" transform="rotate(-180 273.095 25.1291)" fill="#BEC3CC"/>
<circle cx="273.095" cy="4.38686" r="3.45689" transform="rotate(-180 273.095 4.38686)" fill="#BEC3CC"/>
<circle cx="65.6826" cy="25.1291" r="3.45689" transform="rotate(-180 65.6826 25.1291)" fill="#BEC3CC"/>
<circle cx="65.6839" cy="4.38686" r="3.45689" transform="rotate(-180 65.6839 4.38686)" fill="#BEC3CC"/>
<circle cx="356.061" cy="25.1291" r="3.45689" transform="rotate(-180 356.061 25.1291)" fill="#BEC3CC"/>
<circle cx="356.063" cy="4.38686" r="3.45689" transform="rotate(-180 356.063 4.38686)" fill="#BEC3CC"/>
<circle cx="148.648" cy="25.1291" r="3.45689" transform="rotate(-180 148.648 25.1291)" fill="#BEC3CC"/>
<circle cx="148.649" cy="4.38686" r="3.45689" transform="rotate(-180 148.649 4.38686)" fill="#BEC3CC"/>
<circle cx="252.354" cy="25.1291" r="3.45689" transform="rotate(-180 252.354 25.1291)" fill="#BEC3CC"/>
<circle cx="252.354" cy="4.38686" r="3.45689" transform="rotate(-180 252.354 4.38686)" fill="#BEC3CC"/>
<circle cx="44.9371" cy="25.1291" r="3.45689" transform="rotate(-180 44.9371 25.1291)" fill="#BEC3CC"/>
<circle cx="44.9391" cy="4.38686" r="3.45689" transform="rotate(-180 44.9391 4.38686)" fill="#BEC3CC"/>
<circle cx="335.317" cy="25.1291" r="3.45689" transform="rotate(-180 335.317 25.1291)" fill="#BEC3CC"/>
<circle cx="335.319" cy="4.38686" r="3.45689" transform="rotate(-180 335.319 4.38686)" fill="#BEC3CC"/>
<circle cx="127.905" cy="25.1291" r="3.45689" transform="rotate(-180 127.905 25.1291)" fill="#BEC3CC"/>
<circle cx="127.906" cy="4.38686" r="3.45689" transform="rotate(-180 127.906 4.38686)" fill="#BEC3CC"/>
<circle cx="231.611" cy="25.1291" r="3.45689" transform="rotate(-180 231.611 25.1291)" fill="#BEC3CC"/>
<circle cx="231.612" cy="4.38686" r="3.45689" transform="rotate(-180 231.612 4.38686)" fill="#BEC3CC"/>
<circle cx="24.1998" cy="25.1291" r="3.45689" transform="rotate(-180 24.1998 25.1291)" fill="#BEC3CC"/>
<circle cx="24.2004" cy="4.38686" r="3.45689" transform="rotate(-180 24.2004 4.38686)" fill="#BEC3CC"/>
<circle cx="314.579" cy="25.1291" r="3.45689" transform="rotate(-180 314.579 25.1291)" fill="#BEC3CC"/>
<circle cx="314.578" cy="4.38686" r="3.45689" transform="rotate(-180 314.578 4.38686)" fill="#BEC3CC"/>
<circle cx="107.166" cy="25.1291" r="3.45689" transform="rotate(-180 107.166 25.1291)" fill="#BEC3CC"/>
<circle cx="107.166" cy="4.38686" r="3.45689" transform="rotate(-180 107.166 4.38686)" fill="#BEC3CC"/>
<circle cx="210.87" cy="25.1291" r="3.45689" transform="rotate(-180 210.87 25.1291)" fill="#BEC3CC"/>
<circle cx="210.871" cy="4.38686" r="3.45689" transform="rotate(-180 210.871 4.38686)" fill="#BEC3CC"/>
<circle cx="3.45687" cy="25.1291" r="3.45689" transform="rotate(-180 3.45687 25.1291)" fill="#BEC3CC"/>
<circle cx="3.45956" cy="4.38686" r="3.45689" transform="rotate(-180 3.45956 4.38686)" fill="#BEC3CC"/>
</g>
</svg>
