<svg width="22" height="22" viewBox="0 0 22 22" fill="none" xmlns="http://www.w3.org/2000/svg">
<path fill-rule="evenodd" clip-rule="evenodd" d="M11.6663 0.434229L14.4893 6.43101C14.5931 6.65753 14.8029 6.81736 15.0488 6.85713L21.3613 7.81876C21.6467 7.87413 21.8785 8.08204 21.9646 8.35983C22.0507 8.63763 21.9771 8.94028 21.7731 9.14748L17.2053 13.8153C17.029 13.9983 16.9497 14.2541 16.9916 14.5048L18.0699 21.0959C18.1288 21.3792 18.0197 21.6712 17.7896 21.8465C17.5595 22.0218 17.2491 22.0492 16.9918 21.9171L11.3458 18.8052C11.1307 18.6859 10.8693 18.6859 10.6542 18.8052L5.00815 21.9171C4.75084 22.0492 4.44054 22.0218 4.2104 21.8465C3.98027 21.6712 3.87121 21.3792 3.93004 21.0959L5.00835 14.5048C5.0503 14.2541 4.97102 13.9983 4.79465 13.8153L0.226878 9.14748C0.0228895 8.94028 -0.0506812 8.63763 0.0354134 8.35985C0.121508 8.08206 0.353316 7.87415 0.638681 7.81878L6.95119 6.85714C7.19704 6.81736 7.40688 6.65753 7.51064 6.43101L10.3337 0.434229C10.4503 0.170271 10.7116 0 11 0C11.2884 0 11.5497 0.170271 11.6663 0.434229Z" fill="#E1E1E1"/>
</svg>
